<svg width="259" height="66" viewBox="0 0 259 66" fill="none" xmlns="http://www.w3.org/2000/svg">
<path d="M208.503 51.5986C206.856 51.5986 205.182 51.3256 203.481 50.7795C201.806 50.2334 200.497 49.4962 199.552 48.5679L201.293 41.851C202.076 42.9432 203.156 43.8988 204.534 44.718C205.938 45.5371 207.382 45.9466 208.867 45.9466C209.866 45.9466 210.582 45.7555 211.014 45.3733C211.473 44.991 211.703 44.5268 211.703 43.9807C211.703 43.3528 211.473 42.9022 211.014 42.6292C210.555 42.3288 210.082 42.0831 209.596 41.892L206.194 40.5814C205.438 40.281 204.574 39.8715 203.602 39.3527C202.63 38.8339 201.779 38.0967 201.05 37.1411C200.348 36.1854 199.997 34.9294 199.997 33.3731C199.997 31.9533 200.348 30.6427 201.05 29.4413C201.752 28.2399 202.765 27.2706 204.088 26.5334C205.438 25.7689 207.058 25.3866 208.948 25.3866C210.703 25.3866 212.337 25.6869 213.849 26.2876C215.388 26.8883 216.509 27.5573 217.211 28.2945L215.591 34.7656C214.673 33.5642 213.579 32.6495 212.31 32.0215C211.068 31.3662 209.88 31.0386 208.746 31.0386C207.882 31.0386 207.247 31.216 206.842 31.571C206.437 31.926 206.235 32.3355 206.235 32.7997C206.235 33.1546 206.37 33.5096 206.64 33.8645C206.937 34.1922 207.423 34.4925 208.098 34.7656L211.257 35.9533C212.175 36.281 213.147 36.7178 214.173 37.2639C215.226 37.81 216.117 38.5745 216.846 39.5575C217.575 40.5131 217.94 41.8374 217.94 43.5302C217.94 45.9057 217.062 47.8443 215.307 49.346C213.579 50.8477 211.311 51.5986 208.503 51.5986Z" fill="#FFA602"/>
<path d="M172.161 50.7796V26.2058H178.48V28.909C179.344 27.7622 180.41 26.8885 181.679 26.2878C182.948 25.6871 184.312 25.3867 185.77 25.3867C187.498 25.3867 189.105 25.8099 190.59 26.6564C192.102 27.4755 193.317 28.6905 194.235 30.3015C195.18 31.8851 195.653 33.8101 195.653 36.0763V50.7796H188.605V37.0183C188.605 35.6531 188.2 34.4381 187.39 33.3732C186.58 32.3083 185.419 31.7759 183.907 31.7759C182.692 31.7759 181.598 32.1991 180.626 33.0455C179.681 33.8647 179.209 35.1616 179.209 36.9364V50.7796H172.161Z" fill="#FFA602"/>
<path d="M156.792 51.5986C154.065 51.5986 151.662 51.0252 149.582 49.8785C147.503 48.7317 145.883 47.1617 144.722 45.1685C143.561 43.148 142.98 40.8408 142.98 38.2469C142.98 35.7622 143.547 33.5642 144.682 31.6529C145.816 29.7143 147.341 28.1853 149.258 27.0658C151.202 25.9463 153.349 25.3866 155.698 25.3866C158.101 25.3866 160.248 25.9463 162.138 27.0658C164.028 28.158 165.513 29.6597 166.593 31.571C167.7 33.4823 168.254 35.653 168.254 38.083V40.5814H153.43C152.755 40.5814 152.107 40.5404 151.486 40.4585C150.865 40.3766 150.244 40.281 149.623 40.1718C149.947 41.8101 150.743 43.148 152.013 44.1855C153.309 45.1958 154.956 45.7009 156.954 45.7009C158.493 45.7009 159.87 45.3869 161.085 44.7589C162.327 44.1309 163.34 43.3528 164.123 42.4244L165.662 48.8136C164.447 49.7419 163.07 50.4382 161.531 50.9024C160.019 51.3665 158.439 51.5986 156.792 51.5986ZM149.461 35.8714C150.811 35.5711 152.134 35.4209 153.43 35.4209H157.723C158.479 35.4209 159.195 35.4482 159.87 35.5028C160.545 35.5574 161.18 35.653 161.774 35.7895C161.369 34.3151 160.626 33.1546 159.546 32.3082C158.493 31.4618 157.183 31.0386 155.617 31.0386C154.132 31.0386 152.836 31.4754 151.729 32.3492C150.649 33.1956 149.893 34.3697 149.461 35.8714Z" fill="#FFA602"/>
<path d="M131.745 50.7792V11.4612H138.793V50.7792H131.745Z" fill="#FFA602"/>
<path d="M103.092 63.0666L111.193 46.6022L101.27 26.2059H109.046L113.339 35.2163C113.717 36.0354 114.041 36.7863 114.311 37.4689C114.608 38.1242 114.851 38.7659 115.04 39.3939C115.256 38.7659 115.513 38.1242 115.81 37.4689C116.107 36.7863 116.458 36.0354 116.863 35.2163L121.237 26.2059H128.73L110.666 63.0666H103.092Z" fill="#0F0F0F"/>
<path d="M95.1966 50.7792L85.5165 37.2636L93.4955 26.2054H101.069L93.212 36.6493L103.5 50.7792H95.1966ZM79.0361 50.7792V11.4612H86.0836V50.7792H79.0361Z" fill="#0F0F0F"/>
<path d="M50.6719 50.7795V26.2057H56.9903V28.9088C57.8543 27.7621 58.9209 26.8883 60.19 26.2876C61.459 25.6869 62.8226 25.3866 64.2807 25.3866C66.0088 25.3866 67.6154 25.8098 69.1005 26.6562C70.6126 27.4754 71.8277 28.6904 72.7457 30.3014C73.6908 31.885 74.1633 33.8099 74.1633 36.0762V50.7795H67.1159V37.0182C67.1159 35.653 66.7109 34.4379 65.9008 33.3731C65.0908 32.3082 63.9297 31.7758 62.4176 31.7758C61.2025 31.7758 60.109 32.199 59.1369 33.0454C58.1918 33.8645 57.7193 35.1615 57.7193 36.9363V50.7795H50.6719Z" fill="#0F0F0F"/>
<path d="M31.7059 51.5989C30.0047 51.5989 28.3981 51.1894 26.8861 50.3703C25.374 49.5238 24.1454 48.3088 23.2003 46.7252C22.2823 45.1142 21.8232 43.1756 21.8232 40.9094V26.2061H28.8707V39.9674C28.8707 41.3326 29.2757 42.5476 30.0858 43.6125C30.9228 44.6773 32.0839 45.2098 33.569 45.2098C34.784 45.2098 35.8641 44.7729 36.8092 43.8992C37.7812 42.9981 38.2673 41.7148 38.2673 40.0493V26.2061H45.3147V50.7798H38.9153V48.1996C38.0512 49.2917 36.9847 50.1382 35.7156 50.7389C34.4735 51.3123 33.1369 51.5989 31.7059 51.5989Z" fill="#0F0F0F"/>
<path d="M0 50.7796V13.9189H19.4412V20.0624H7.04744V25.9601H18.2261V32.1035H7.04744V50.7796H0Z" fill="#0F0F0F"/>
<path d="M235.289 38.1973C236.042 38.1973 236.58 38.4725 236.902 39.0225L246.419 55.9355C246.795 56.5404 246.916 57.2003 246.783 57.915C246.65 58.63 246.206 59.2905 245.451 59.8955C242.978 61.7655 240.088 63.2506 236.782 64.3506C233.477 65.4505 230.129 66 226.74 66C225.988 66 225.14 65.9586 224.198 65.875C223.256 65.7914 222.437 65.6957 221.74 65.5879C220.988 65.4779 220.477 65.1476 220.208 64.5977C219.939 64.0477 219.993 63.4422 220.369 62.7822L233.676 39.0225C233.998 38.4725 234.536 38.1973 235.289 38.1973ZM225.047 42.9004C225.638 42.9005 226.095 43.1757 226.418 43.7256C226.74 44.2753 226.74 44.8252 226.418 45.375L217.143 61.958C216.713 62.6727 216.175 63.1404 215.53 63.3604C214.885 63.5803 214.159 63.4702 213.353 63.0303C209.804 61.2703 206.551 58.8775 203.594 55.8525C203.059 55.3054 202.549 54.744 202.062 54.1699C202.156 54.2023 202.25 54.2356 202.345 54.2666L202.36 54.2705C204.393 54.923 206.446 55.2666 208.504 55.2666C211.977 55.2665 215.156 54.3226 217.689 52.1309L217.691 52.1318C217.695 52.1284 217.699 52.1245 217.703 52.1211C217.706 52.1187 217.71 52.1157 217.713 52.1133L217.711 52.1123C220.292 49.8939 221.606 46.9337 221.606 43.5312C221.606 43.3211 221.601 43.1108 221.592 42.9004H225.047ZM256.258 26.4004C256.849 26.4004 257.387 26.6069 257.871 27.0205C258.355 27.434 258.65 27.9423 258.758 28.5449C258.865 29.1477 258.932 29.8082 258.958 30.5254C258.984 31.2425 258.998 32.0674 259 33C259 36.465 258.448 39.9449 257.345 43.4385C256.241 46.9319 254.535 50.1902 252.226 53.2129C251.795 53.8179 251.177 54.1345 250.37 54.1631C249.564 54.1916 248.972 53.875 248.596 53.2129L234.886 28.875C234.563 28.325 234.577 27.7746 234.928 27.2246C235.278 26.6748 235.749 26.4004 236.338 26.4004H256.258ZM207.282 51.5488C207.691 51.5819 208.098 51.5986 208.503 51.5986L207.885 51.5869C207.684 51.5786 207.484 51.5651 207.282 51.5488ZM207.184 51.5391C207.016 51.5244 206.849 51.5075 206.681 51.4873C206.849 51.5075 207.016 51.5244 207.184 51.5391ZM206.519 51.4658C206.39 51.4489 206.26 51.4313 206.131 51.4111C206.26 51.4313 206.39 51.449 206.519 51.4658ZM205.86 51.3662C205.749 51.347 205.638 51.3263 205.526 51.3047C205.638 51.3263 205.749 51.347 205.86 51.3662ZM205.272 51.2539C205.153 51.2288 205.034 51.2026 204.914 51.1748C205.034 51.2026 205.153 51.2288 205.272 51.2539ZM204.684 51.1201C204.532 51.0826 204.38 51.0419 204.228 51C204.38 51.0419 204.532 51.0826 204.684 51.1201ZM204.092 50.9629C203.889 50.9053 203.685 50.8456 203.481 50.7803C203.685 50.8456 203.889 50.9053 204.092 50.9629ZM215.618 49.0664C215.56 49.1213 215.5 49.1747 215.439 49.2285C215.5 49.1747 215.56 49.1213 215.618 49.0664ZM215.911 48.7754C215.868 48.82 215.824 48.8633 215.78 48.9072C215.824 48.8633 215.868 48.82 215.911 48.7754ZM216.178 48.4814C216.12 48.5483 216.06 48.6133 215.999 48.6787C216.06 48.6133 216.12 48.5483 216.178 48.4814ZM216.425 48.1816C216.38 48.2399 216.332 48.2963 216.284 48.3535C216.332 48.2963 216.38 48.2399 216.425 48.1816ZM216.652 47.8711C216.619 47.9185 216.585 47.965 216.551 48.0117C216.585 47.9649 216.619 47.9185 216.652 47.8711ZM216.867 47.542C216.836 47.5929 216.803 47.6431 216.771 47.6934C216.803 47.6431 216.836 47.5929 216.867 47.542ZM217.063 47.2021C217.032 47.2604 216.999 47.3176 216.966 47.375C216.999 47.3176 217.032 47.2604 217.063 47.2021ZM217.236 46.8594C217.21 46.9158 217.182 46.9717 217.154 47.0273C217.182 46.9717 217.21 46.9158 217.236 46.8594ZM217.401 46.4805C217.373 46.5517 217.343 46.6223 217.312 46.6924C217.343 46.6223 217.373 46.5517 217.401 46.4805ZM217.532 46.125C217.508 46.1964 217.483 46.2675 217.457 46.3379C217.483 46.2675 217.508 46.1964 217.532 46.125ZM217.656 45.7227C217.635 45.8001 217.613 45.8769 217.589 45.9531C217.613 45.8769 217.635 45.8001 217.656 45.7227ZM208.313 45.9277L208.868 45.9473L208.59 45.9424C208.338 45.9337 208.088 45.9113 207.839 45.8789C207.997 45.8994 208.155 45.9167 208.313 45.9277ZM205.98 45.4102C206.266 45.5181 206.554 45.6103 206.843 45.6855C206.554 45.6102 206.266 45.5181 205.98 45.4102ZM217.745 45.3613C217.728 45.4369 217.712 45.5124 217.693 45.5869C217.712 45.5124 217.728 45.4369 217.745 45.3613ZM217.832 44.9092C217.817 45.0021 217.801 45.0942 217.783 45.1855C217.801 45.0942 217.817 45.0021 217.832 44.9092ZM217.891 44.4688C217.879 44.5805 217.866 44.6912 217.85 44.8008C217.866 44.6912 217.879 44.5805 217.891 44.4688ZM217.931 43.9707C217.924 44.1132 217.913 44.2543 217.899 44.3936C217.913 44.2542 217.924 44.1133 217.931 43.9707ZM201.012 37.0859C200.987 37.0516 200.962 37.0176 200.938 36.9824L200.924 36.959C200.952 37.002 200.982 37.0441 201.012 37.0859ZM200.77 36.709C200.748 36.6712 200.726 36.6333 200.705 36.5947C200.726 36.6333 200.748 36.6712 200.77 36.709ZM200.679 36.5439C200.656 36.5002 200.633 36.4559 200.611 36.4111C200.633 36.4559 200.656 36.5002 200.679 36.5439ZM200.57 36.3252C200.554 36.2904 200.539 36.2551 200.523 36.2197C200.539 36.2551 200.554 36.2904 200.57 36.3252ZM200.043 32.5098C200.046 32.4762 200.05 32.4426 200.054 32.4092C200.05 32.4426 200.047 32.4762 200.043 32.5098ZM208.96 31.043C209.143 31.0496 209.328 31.0653 209.515 31.0889C209.4 31.0744 209.287 31.0628 209.174 31.0547L208.746 31.0391L208.96 31.043ZM201.257 29.1104C201.276 29.0819 201.294 29.0536 201.313 29.0254C201.294 29.0536 201.276 29.0819 201.257 29.1104ZM203.313 11.7148C204.094 11.7149 204.698 12.1275 205.126 12.9521L210.06 21.7539C209.692 21.7318 209.322 21.7207 208.949 21.7207C206.572 21.7207 204.309 22.201 202.305 23.3301C200.461 24.3574 198.948 25.7743 197.886 27.5918C197.715 27.8846 197.558 28.1823 197.415 28.4844C197.403 28.4639 197.392 28.4423 197.38 28.4219C196.793 27.4048 196.102 26.4855 195.308 25.6758C195.536 24.6654 195.812 23.6563 196.136 22.6484C197.239 19.2121 198.945 15.9523 201.255 12.8701C201.846 12.1001 202.533 11.7148 203.313 11.7148ZM203.646 26.7969C203.617 26.8147 203.589 26.8326 203.562 26.8506C203.577 26.8406 203.592 26.8302 203.607 26.8203L203.646 26.7969ZM226.74 0C227.547 8.24616e-07 228.434 0.0414176 229.401 0.125C230.369 0.2086 231.176 0.304309 231.821 0.412109C232.574 0.522112 233.071 0.852514 233.314 1.40234C233.557 1.95235 233.49 2.55777 233.111 3.21777L220.213 26.1299L219.866 25.7666C218.633 24.4719 216.945 23.5615 215.181 22.873C214.863 22.7473 214.542 22.6331 214.218 22.5283L207.143 9.98242C206.713 9.2675 206.605 8.55281 206.82 7.83789C207.035 7.12294 207.465 6.54546 208.11 6.10547C210.691 4.23546 213.555 2.75039 216.701 1.65039C219.848 0.550395 223.194 0 226.74 0ZM212.294 25.7871C212.304 25.7896 212.314 25.7914 212.324 25.7939C212.314 25.7914 212.304 25.7896 212.294 25.7871ZM211.609 25.6367C211.735 25.661 211.859 25.687 211.983 25.7148C211.859 25.687 211.735 25.661 211.609 25.6367ZM211.055 25.542C211.165 25.5585 211.275 25.5756 211.384 25.5947C211.275 25.5756 211.165 25.5585 211.055 25.542ZM210.433 25.4639C210.549 25.4758 210.665 25.4881 210.78 25.5029C210.665 25.4881 210.549 25.4758 210.433 25.4639ZM238.031 2.60059C238.676 2.46423 239.375 2.58701 240.128 2.96973C243.838 4.67468 247.117 7.05321 249.967 10.1045C252.816 13.1558 255.021 16.6078 256.58 20.46C256.849 21.175 256.809 21.7948 256.458 22.3184C256.107 22.8418 255.556 23.1018 254.806 23.0996H228.354C227.762 23.0996 227.305 22.8252 226.982 22.2754C226.66 21.7254 226.66 21.175 226.982 20.625L236.418 3.87793C236.848 3.16293 237.386 2.73699 238.031 2.60059Z" fill="#0F0F0F"/>
</svg>
