<svg width="30" height="28" viewBox="0 0 30 28" fill="none" xmlns="http://www.w3.org/2000/svg">
<rect x="1" y="1" width="28" height="26" rx="13" fill="white" stroke="white" stroke-width="2"/>
<path d="M15.5 11C15.3167 11 15.175 10.9167 15.075 10.75C14.975 10.5833 14.975 10.4167 15.075 10.25L18 5.175C18.1333 4.95833 18.3 4.82933 18.5 4.788C18.7 4.74667 18.9167 4.784 19.15 4.9C20.3 5.41667 21.3167 6.13733 22.2 7.062C23.0833 7.98667 23.7667 9.03267 24.25 10.2C24.3333 10.4167 24.3207 10.6043 24.212 10.763C24.1033 10.9217 23.9327 11.0007 23.7 11H15.5ZM11.925 12.225L8.925 7.025C8.79167 6.80833 8.75833 6.59167 8.825 6.375C8.89167 6.15833 9.025 5.98333 9.225 5.85C10.025 5.28333 10.9127 4.83333 11.888 4.5C12.8633 4.16667 13.9007 4 15 4C15.25 4 15.525 4.01267 15.825 4.038C16.125 4.06333 16.375 4.09233 16.575 4.125C16.8083 4.15833 16.9627 4.25833 17.038 4.425C17.1133 4.59167 17.0923 4.775 16.975 4.975L12.8 12.225C12.7 12.3917 12.5543 12.475 12.363 12.475C12.1717 12.475 12.0257 12.3917 11.925 12.225ZM5.85 16C5.66667 16 5.5 15.9377 5.35 15.813C5.2 15.6883 5.10833 15.534 5.075 15.35C5.04167 15.166 5.021 14.966 5.013 14.75C5.005 14.534 5.00067 14.284 5 14C5 12.95 5.171 11.9043 5.513 10.863C5.855 9.82167 6.384 8.834 7.1 7.9C7.28333 7.66667 7.496 7.55 7.738 7.55C7.98 7.55 8.16733 7.675 8.3 7.925L12.5 15.25C12.6 15.4167 12.596 15.5833 12.488 15.75C12.38 15.9167 12.234 16 12.05 16H5.85ZM10.85 23.1C9.75 22.5667 8.74167 21.8417 7.825 20.925C6.90833 20.0083 6.21667 18.9667 5.75 17.8C5.66667 17.5833 5.68333 17.396 5.8 17.238C5.91667 17.08 6.09167 17.0007 6.325 17H14.475C14.6583 17 14.8 17.0833 14.9 17.25C15 17.4167 15 17.5833 14.9 17.75L12.025 22.775C11.8917 22.9917 11.725 23.1333 11.525 23.2C11.325 23.2667 11.1 23.2333 10.85 23.1ZM15 24C14.7667 24 14.504 23.9873 14.212 23.962C13.92 23.9367 13.666 23.9077 13.45 23.875C13.2167 23.8417 13.0583 23.7417 12.975 23.575C12.8917 23.4083 12.9083 23.225 13.025 23.025L17.15 15.825C17.25 15.6583 17.4167 15.575 17.65 15.575C17.8833 15.575 18.05 15.6583 18.15 15.825L21.1 20.95C21.2167 21.1333 21.2543 21.3333 21.213 21.55C21.1717 21.7667 21.034 21.9667 20.8 22.15C20.0333 22.7167 19.1377 23.1667 18.113 23.5C17.0883 23.8333 16.0507 24 15 24ZM21.775 20.125L17.525 12.75C17.425 12.5833 17.4293 12.4167 17.538 12.25C17.6467 12.0833 17.7923 12 17.975 12H24.15C24.3333 12 24.5 12.0627 24.65 12.188C24.8 12.3133 24.8917 12.4673 24.925 12.65C24.9583 12.8327 24.979 13.0327 24.987 13.25C24.995 13.4673 24.9993 13.7173 25 14C25 15.05 24.829 16.1043 24.487 17.163C24.145 18.2217 23.616 19.209 22.9 20.125C22.7667 20.3083 22.575 20.4043 22.325 20.413C22.075 20.4217 21.8917 20.3257 21.775 20.125Z" fill="#F0DE51"/>
</svg>
