<svg width="100" height="100" viewBox="0 0 100 100" fill="none" xmlns="http://www.w3.org/2000/svg">
<path d="M52.083 37.5002C51.3191 37.5002 50.7288 37.1529 50.3122 36.4585C49.8955 35.7641 49.8955 35.0696 50.3122 34.3752L62.4997 13.2293C63.0552 12.3266 63.7497 11.7891 64.583 11.6168C65.4163 11.4446 66.3191 11.6002 67.2913 12.0835C72.083 14.2363 76.3191 17.2391 79.9997 21.0918C83.6802 24.9446 86.5275 29.3029 88.5413 34.1668C88.8886 35.0696 88.8358 35.8516 88.383 36.5127C87.9302 37.1738 87.2191 37.5029 86.2497 37.5002H52.083ZM37.1872 42.6043L24.6872 20.9377C24.1316 20.0349 23.9927 19.1321 24.2705 18.2293C24.5483 17.3266 25.1038 16.5974 25.9372 16.0418C29.2705 13.6807 32.9691 11.8057 37.033 10.4168C41.0969 9.02794 45.4191 8.3335 49.9997 8.3335C51.0413 8.3335 52.1872 8.38627 53.4372 8.49183C54.6872 8.59739 55.7288 8.71822 56.5622 8.85433C57.5344 8.99322 58.1775 9.40988 58.4913 10.1043C58.8052 10.7988 58.7177 11.5627 58.2288 12.396L40.833 42.6043C40.4163 43.2988 39.8094 43.646 39.0122 43.646C38.215 43.646 37.6066 43.2988 37.1872 42.6043ZM11.8747 58.3335C11.1108 58.3335 10.4163 58.0738 9.79134 57.5543C9.16634 57.0349 8.7844 56.3918 8.64551 55.6252C8.50662 54.8585 8.42051 54.0252 8.38717 53.1252C8.35384 52.2252 8.33579 51.1835 8.33301 50.0002C8.33301 45.6252 9.04551 41.2682 10.4705 36.9293C11.8955 32.5904 14.0997 28.4752 17.083 24.5835C17.8469 23.6113 18.733 23.1252 19.7413 23.1252C20.7497 23.1252 21.5302 23.646 22.083 24.6877L39.583 55.2085C39.9997 55.9029 39.983 56.5974 39.533 57.2918C39.083 57.9863 38.4747 58.3335 37.708 58.3335H11.8747ZM32.708 87.9168C28.1247 85.6946 23.9233 82.6738 20.1038 78.8543C16.2844 75.0349 13.4025 70.6946 11.458 65.8335C11.1108 64.9307 11.1802 64.1502 11.6663 63.4918C12.1525 62.8335 12.8816 62.5029 13.8538 62.5002H47.8122C48.5761 62.5002 49.1663 62.8474 49.583 63.5418C49.9997 64.2363 49.9997 64.9307 49.583 65.6252L37.6038 86.5627C37.0483 87.4654 36.3538 88.0557 35.5205 88.3335C34.6872 88.6113 33.7497 88.4724 32.708 87.9168ZM49.9997 91.6668C49.0275 91.6668 47.933 91.6141 46.7163 91.5085C45.4997 91.4029 44.4413 91.2821 43.5413 91.146C42.5691 91.0071 41.9094 90.5904 41.5622 89.896C41.215 89.2016 41.2844 88.4377 41.7705 87.6043L58.958 57.6043C59.3747 56.9099 60.0691 56.5627 61.0413 56.5627C62.0136 56.5627 62.708 56.9099 63.1247 57.6043L75.4164 78.9585C75.9025 79.7224 76.0594 80.5557 75.8872 81.4585C75.715 82.3613 75.1413 83.1946 74.1663 83.9585C70.9719 86.3196 67.24 88.1946 62.9705 89.5835C58.7011 90.9724 54.3775 91.6668 49.9997 91.6668ZM78.2288 75.521L60.5205 44.7918C60.1038 44.0974 60.1219 43.4029 60.5747 42.7085C61.0275 42.0141 61.6344 41.6668 62.3955 41.6668H88.1247C88.8886 41.6668 89.583 41.9279 90.208 42.4502C90.833 42.9724 91.215 43.6141 91.3538 44.3752C91.4927 45.1363 91.5788 45.9696 91.6122 46.8752C91.6455 47.7807 91.6636 48.8224 91.6664 50.0002C91.6664 54.3752 90.9538 58.7682 89.5288 63.1793C88.1038 67.5904 85.8997 71.7043 82.9163 75.521C82.3608 76.2849 81.5622 76.6849 80.5205 76.721C79.4789 76.7571 78.715 76.3571 78.2288 75.521Z" fill="#F0DE51"/>
</svg>
