<svg width="158" height="40" viewBox="0 0 158 40" fill="none" xmlns="http://www.w3.org/2000/svg">
<path d="M127.195 31.2723C126.19 31.2723 125.169 31.1068 124.131 30.7759C123.11 30.4449 122.311 29.9981 121.734 29.4355L122.797 25.3647C123.275 26.0266 123.933 26.6058 124.773 27.1022C125.63 27.5986 126.511 27.8469 127.417 27.8469C128.027 27.8469 128.463 27.731 128.727 27.4994C129.007 27.2677 129.147 26.9864 129.147 26.6554C129.147 26.2748 129.007 26.0018 128.727 25.8363C128.447 25.6543 128.158 25.5053 127.862 25.3895L125.786 24.5952C125.325 24.4132 124.798 24.1649 124.205 23.8505C123.612 23.5361 123.093 23.0893 122.649 22.5101C122.22 21.931 122.006 21.1698 122.006 20.2265C122.006 19.366 122.22 18.5717 122.649 17.8436C123.077 17.1155 123.695 16.528 124.502 16.0812C125.325 15.6179 126.314 15.3862 127.467 15.3862C128.537 15.3862 129.534 15.5683 130.456 15.9323C131.395 16.2964 132.079 16.7018 132.507 17.1486L131.519 21.0705C130.959 20.3424 130.292 19.788 129.517 19.4074C128.76 19.0102 128.035 18.8117 127.343 18.8117C126.816 18.8117 126.429 18.9192 126.182 19.1344C125.935 19.3495 125.811 19.5977 125.811 19.879C125.811 20.0941 125.894 20.3093 126.058 20.5244C126.239 20.723 126.536 20.905 126.948 21.0705L128.875 21.7903C129.435 21.9889 130.028 22.2536 130.654 22.5846C131.296 22.9156 131.84 23.3789 132.285 23.9746C132.729 24.5538 132.952 25.3564 132.952 26.3824C132.952 27.822 132.417 28.997 131.346 29.9071C130.292 30.8172 128.908 31.2723 127.195 31.2723Z" fill="#FFA602"/>
<path d="M105.025 30.7759V15.8827H108.88V17.5209C109.407 16.8259 110.058 16.2964 110.832 15.9323C111.606 15.5683 112.438 15.3862 113.327 15.3862C114.382 15.3862 115.362 15.6427 116.268 16.1557C117.19 16.6522 117.931 17.3885 118.491 18.3649C119.068 19.3247 119.356 20.4913 119.356 21.8648V30.7759H115.057V22.4357C115.057 21.6083 114.81 20.8719 114.316 20.2265C113.821 19.5811 113.113 19.2585 112.191 19.2585C111.449 19.2585 110.782 19.515 110.189 20.0279C109.613 20.5244 109.325 21.3104 109.325 22.386V30.7759H105.025Z" fill="#FFA602"/>
<path d="M95.6491 31.2723C93.9854 31.2723 92.5194 30.9248 91.2511 30.2298C89.9827 29.5348 88.9944 28.5833 88.2861 27.3752C87.5778 26.1507 87.2236 24.7524 87.2236 23.1803C87.2236 21.6745 87.5695 20.3424 88.2614 19.184C88.9532 18.0091 89.8839 17.0824 91.0534 16.4039C92.2394 15.7255 93.5489 15.3862 94.982 15.3862C96.448 15.3862 97.7575 15.7255 98.9106 16.4039C100.064 17.0659 100.97 17.976 101.628 19.1344C102.304 20.2927 102.641 21.6083 102.641 23.081V24.5952H93.5983C93.1865 24.5952 92.7912 24.5704 92.4123 24.5207C92.0335 24.4711 91.6546 24.4132 91.2758 24.347C91.4734 25.3398 91.9593 26.1507 92.7335 26.7795C93.5242 27.3918 94.529 27.6979 95.7479 27.6979C96.6868 27.6979 97.5269 27.5076 98.2682 27.127C99.0259 26.7464 99.6436 26.2748 100.121 25.7122L101.06 29.5844C100.319 30.147 99.4788 30.569 98.5399 30.8503C97.6175 31.1316 96.6539 31.2723 95.6491 31.2723ZM91.1769 21.7407C92.0005 21.5586 92.8077 21.4676 93.5983 21.4676H96.2174C96.6786 21.4676 97.1151 21.4842 97.5269 21.5173C97.9387 21.5504 98.3258 21.6083 98.6882 21.691C98.4411 20.7974 97.9881 20.0941 97.3292 19.5811C96.6868 19.0682 95.8879 18.8117 94.9326 18.8117C94.0266 18.8117 93.2359 19.0764 92.5606 19.606C91.9017 20.119 91.4405 20.8305 91.1769 21.7407Z" fill="#FFA602"/>
<path d="M80.3701 30.7754V6.94629H84.6693V30.7754H80.3701Z" fill="#FFA602"/>
<path d="M62.8902 38.2226L67.8318 28.2442L61.7783 15.8828H66.5223L69.1413 21.3436C69.3719 21.8401 69.5696 22.2952 69.7343 22.7089C69.9155 23.106 70.0638 23.4949 70.1791 23.8755C70.3108 23.4949 70.4673 23.106 70.6485 22.7089C70.8297 22.2952 71.0439 21.8401 71.2909 21.3436L73.9594 15.8828H78.5304L67.5106 38.2226H62.8902Z" fill="white"/>
<path d="M58.0744 30.7754L52.1691 22.5841L57.0366 15.8822H61.657L56.8637 22.2118L63.1395 30.7754H58.0744ZM48.2158 30.7754V6.94629H52.515V30.7754H48.2158Z" fill="white"/>
<path d="M30.9121 30.7759V15.8827H34.7666V17.5209C35.2937 16.8259 35.9443 16.2964 36.7185 15.9323C37.4927 15.5683 38.3245 15.3862 39.214 15.3862C40.2682 15.3862 41.2483 15.6427 42.1543 16.1557C43.0767 16.6522 43.818 17.3885 44.378 18.3649C44.9545 19.3247 45.2428 20.4913 45.2428 21.8648V30.7759H40.9436V22.4357C40.9436 21.6083 40.6965 20.8719 40.2024 20.2265C39.7082 19.5811 38.9999 19.2585 38.0775 19.2585C37.3362 19.2585 36.6691 19.515 36.0761 20.0279C35.4996 20.5244 35.2113 21.3104 35.2113 22.386V30.7759H30.9121Z" fill="white"/>
<path d="M19.3423 31.272C18.3045 31.272 17.3244 31.0237 16.402 30.5273C15.4796 30.0143 14.7301 29.2779 14.1536 28.3181C13.5935 27.3418 13.3135 26.1669 13.3135 24.7934V15.8823H17.6127V24.2225C17.6127 25.0499 17.8598 25.7863 18.3539 26.4317C18.8646 27.077 19.5729 27.3997 20.4788 27.3997C21.2201 27.3997 21.8789 27.135 22.4555 26.6054C23.0485 26.0593 23.345 25.2816 23.345 24.2722V15.8823H27.6442V30.7755H23.7403V29.2117C23.2132 29.8737 22.5625 30.3866 21.7884 30.7507C21.0306 31.0982 20.2153 31.272 19.3423 31.272Z" fill="white"/>
<path d="M0 30.7758V8.43604H11.8599V12.1593H4.29921V15.7337H11.1186V19.457H4.29921V30.7758H0Z" fill="white"/>
<path d="M143.536 23.1504C143.995 23.1505 144.323 23.3172 144.52 23.6504L150.325 33.9004C150.555 34.267 150.629 34.6673 150.548 35.1006C150.466 35.5338 150.195 35.9332 149.734 36.2998C148.226 37.433 146.464 38.3334 144.447 39C142.431 39.6667 140.388 40 138.32 40C137.861 40 137.344 39.9745 136.77 39.9238C136.195 39.8732 135.695 39.8153 135.271 39.75C134.811 39.6834 134.5 39.4835 134.336 39.1504C134.172 38.8171 134.204 38.4498 134.434 38.0498L142.552 23.6504C142.749 23.3171 143.077 23.1504 143.536 23.1504ZM137.287 26C137.648 26 137.927 26.1667 138.124 26.5C138.321 26.8333 138.321 27.1667 138.124 27.5L132.466 37.5498C132.203 37.9831 131.875 38.2671 131.481 38.4004C131.088 38.5335 130.645 38.4668 130.153 38.2002C127.989 37.1335 126.004 35.6838 124.2 33.8506C123.873 33.5179 123.561 33.1763 123.263 32.8271C123.321 32.8472 123.379 32.8695 123.438 32.8887L123.448 32.8916C124.688 33.287 125.94 33.4951 127.195 33.4951C129.314 33.4951 131.254 32.9231 132.8 31.5947L132.801 31.5957C132.803 31.5936 132.805 31.591 132.808 31.5889C132.809 31.5874 132.812 31.5855 132.813 31.584L132.812 31.583C134.387 30.2385 135.188 28.4448 135.188 26.3828C135.188 26.2553 135.183 26.1277 135.178 26H137.287ZM156.327 16C156.688 16 157.016 16.1253 157.312 16.376C157.607 16.6266 157.787 16.9346 157.853 17.2998C157.918 17.6651 157.959 18.0654 157.975 18.5C157.99 18.9346 157.999 19.4347 158 20C158 22.1 157.663 24.2088 156.99 26.3262C156.317 28.4435 155.276 30.418 153.867 32.25C153.605 32.6165 153.228 32.8088 152.736 32.8262C152.244 32.8435 151.883 32.6513 151.653 32.25L143.29 17.5C143.093 17.1667 143.102 16.8333 143.315 16.5C143.529 16.1668 143.816 16 144.176 16H156.327ZM126.798 31.2627C126.684 31.2578 126.57 31.2513 126.456 31.2422C126.57 31.2513 126.684 31.2578 126.798 31.2627ZM126.371 31.2334C126.274 31.2248 126.177 31.2157 126.08 31.2041C126.177 31.2157 126.274 31.2248 126.371 31.2334ZM126.008 31.1943C125.915 31.1825 125.822 31.1698 125.729 31.1553C125.822 31.1698 125.915 31.1825 126.008 31.1943ZM125.594 31.1328C125.522 31.1205 125.449 31.1068 125.377 31.0928C125.449 31.1067 125.522 31.1205 125.594 31.1328ZM125.219 31.0615C125.149 31.047 125.08 31.0316 125.011 31.0156C125.08 31.0316 125.149 31.047 125.219 31.0615ZM124.868 30.9824C124.785 30.962 124.702 30.9405 124.618 30.918C124.702 30.9405 124.785 30.962 124.868 30.9824ZM124.492 30.8838C124.372 30.8499 124.252 30.8147 124.132 30.7764C124.252 30.8147 124.372 30.8499 124.492 30.8838ZM131.532 29.7402C131.472 29.7966 131.411 29.8528 131.347 29.9072C131.411 29.8528 131.472 29.7966 131.532 29.7402ZM131.713 29.5625C131.687 29.5889 131.661 29.6146 131.635 29.6406C131.661 29.6146 131.687 29.5889 131.713 29.5625ZM131.869 29.3916C131.844 29.4203 131.818 29.4483 131.792 29.4766C131.818 29.4483 131.844 29.4203 131.869 29.3916ZM132.029 29.1973C132.005 29.2282 131.98 29.2586 131.955 29.2891C131.98 29.2586 132.005 29.2282 132.029 29.1973ZM132.168 29.0107C132.144 29.0448 132.119 29.0778 132.094 29.1113C132.119 29.0778 132.144 29.0448 132.168 29.0107ZM132.299 28.8115C132.279 28.8441 132.257 28.8761 132.236 28.9082C132.257 28.8761 132.279 28.8441 132.299 28.8115ZM132.415 28.6104C132.398 28.6425 132.38 28.6744 132.361 28.7061C132.38 28.6744 132.398 28.6425 132.415 28.6104ZM132.525 28.3945C132.508 28.4323 132.489 28.4696 132.47 28.5068C132.489 28.4696 132.508 28.4323 132.525 28.3945ZM132.613 28.1953C132.6 28.2281 132.586 28.2605 132.571 28.293C132.586 28.2605 132.6 28.2281 132.613 28.1953ZM132.696 27.9756C132.687 28.0028 132.677 28.0297 132.667 28.0566C132.677 28.0297 132.687 28.0028 132.696 27.9756ZM132.779 27.7109C132.765 27.7612 132.75 27.8109 132.734 27.8604C132.75 27.8109 132.765 27.7612 132.779 27.7109ZM132.824 27.5332C132.818 27.5593 132.812 27.5854 132.806 27.6113C132.812 27.5854 132.818 27.5593 132.824 27.5332ZM132.886 27.2148C132.877 27.2712 132.868 27.3274 132.857 27.3828C132.868 27.3274 132.877 27.2712 132.886 27.2148ZM132.915 27.0068C132.909 27.055 132.903 27.1029 132.896 27.1504C132.903 27.1029 132.909 27.055 132.915 27.0068ZM122.649 22.5098C122.598 22.4404 122.55 22.3685 122.505 22.2939C122.55 22.3685 122.598 22.4404 122.649 22.5098ZM122.477 22.2432C122.443 22.1843 122.409 22.1245 122.379 22.0625C122.409 22.1245 122.443 22.1843 122.477 22.2432ZM122.344 21.9854C122.32 21.9327 122.297 21.8791 122.275 21.8242C122.297 21.8791 122.32 21.9327 122.344 21.9854ZM122.237 21.7217C122.22 21.6721 122.204 21.6216 122.188 21.5703C122.204 21.6216 122.22 21.6721 122.237 21.7217ZM122.152 21.4473C122.14 21.4008 122.13 21.3534 122.119 21.3057C122.13 21.3534 122.14 21.4008 122.152 21.4473ZM122.089 21.1621C122.078 21.106 122.07 21.049 122.062 20.9912C122.07 21.049 122.078 21.106 122.089 21.1621ZM122.045 20.8818C122.036 20.8124 122.031 20.7417 122.025 20.6699C122.031 20.7417 122.036 20.8124 122.045 20.8818ZM122.024 19.8242C122.03 19.7564 122.036 19.689 122.044 19.6221C122.036 19.689 122.03 19.7564 122.024 19.8242ZM122.06 19.5098C122.067 19.4577 122.076 19.406 122.085 19.3545C122.076 19.406 122.067 19.4577 122.06 19.5098ZM122.122 19.1758C122.13 19.1392 122.138 19.1027 122.147 19.0664C122.138 19.1027 122.13 19.1392 122.122 19.1758ZM122.186 18.9229C122.2 18.8723 122.216 18.8224 122.232 18.7725C122.216 18.8224 122.2 18.8723 122.186 18.9229ZM122.498 18.1201C122.443 18.2286 122.394 18.3389 122.349 18.4502C122.394 18.3389 122.443 18.2286 122.498 18.1201ZM122.865 17.5137C122.908 17.4542 122.951 17.3953 122.996 17.3379C122.951 17.3953 122.908 17.4542 122.865 17.5137ZM123.04 17.2832C123.086 17.2265 123.134 17.1708 123.183 17.1162C123.134 17.1708 123.086 17.2265 123.04 17.2832ZM124.029 7.10059C124.506 7.1006 124.874 7.3506 125.135 7.85059L128.146 13.1865C127.921 13.1731 127.694 13.1641 127.467 13.1641C126.017 13.1641 124.636 13.4555 123.414 14.1396C122.289 14.7622 121.366 15.6212 120.718 16.7227C120.614 16.8997 120.519 17.08 120.432 17.2627C120.424 17.2504 120.418 17.2378 120.41 17.2256C120.052 16.6092 119.63 16.0523 119.146 15.5615C119.285 14.9492 119.453 14.3374 119.65 13.7266C120.323 11.6439 121.364 9.66781 122.773 7.7998C123.134 7.33318 123.553 7.10059 124.029 7.10059ZM123.254 17.0391C123.296 16.9939 123.34 16.9499 123.385 16.9062C123.34 16.9499 123.296 16.9939 123.254 17.0391ZM123.478 16.8174C123.519 16.7793 123.561 16.742 123.604 16.7051C123.561 16.742 123.519 16.7793 123.478 16.8174ZM123.705 16.6182C123.755 16.5774 123.806 16.5382 123.858 16.499C123.806 16.5382 123.755 16.5774 123.705 16.6182ZM124.209 16.2549C124.12 16.3112 124.034 16.3695 123.95 16.4297C124.034 16.3695 124.12 16.3112 124.209 16.2549ZM138.32 0C138.812 0 139.354 0.0255051 139.944 0.0761719C140.535 0.126825 141.026 0.184689 141.42 0.25C141.879 0.316634 142.183 0.51657 142.331 0.849609C142.479 1.18294 142.438 1.55019 142.207 1.9502L134.338 15.8369L134.127 15.6162C133.375 14.8317 132.345 14.2805 131.269 13.8633C131.075 13.7873 130.88 13.7196 130.683 13.6562L126.365 6.0498C126.103 5.61655 126.037 5.18325 126.168 4.75C126.299 4.31667 126.562 3.96686 126.956 3.7002C128.53 2.56694 130.277 1.66663 132.196 1C134.116 0.333365 136.157 3.03806e-05 138.32 0ZM129.525 15.6328L129.526 15.6348C129.5 15.6281 129.474 15.6206 129.447 15.6143C129.473 15.6205 129.499 15.6263 129.525 15.6328ZM129.128 15.5449C129.184 15.5559 129.239 15.568 129.294 15.5801C129.239 15.568 129.184 15.5559 129.128 15.5449ZM128.789 15.4863C128.833 15.4931 128.877 15.4994 128.921 15.5068C128.877 15.4994 128.833 15.4931 128.789 15.4863ZM128.278 15.4229C128.38 15.4321 128.481 15.4433 128.581 15.4561C128.481 15.4433 128.38 15.4321 128.278 15.4229ZM127.865 15.3945C127.995 15.4002 128.124 15.4088 128.252 15.4199C128.124 15.4087 127.995 15.4002 127.865 15.3945ZM145.208 1.57617C145.601 1.49353 146.028 1.56796 146.487 1.7998C148.75 2.83314 150.752 4.27468 152.49 6.12402C154.229 7.97334 155.573 10.0658 156.524 12.4004C156.688 12.8336 156.663 13.2091 156.449 13.5264C156.235 13.8434 155.9 14.0012 155.442 14H139.305C138.944 14 138.665 13.8333 138.468 13.5C138.271 13.1668 138.271 12.8332 138.468 12.5L144.225 2.34961C144.487 1.91669 144.815 1.65892 145.208 1.57617Z" fill="white"/>
</svg>
