<svg width="39" height="40" viewBox="0 0 39 40" fill="none" xmlns="http://www.w3.org/2000/svg">
<path d="M20.25 14C19.8964 14 19.6232 13.8333 19.4304 13.5C19.2375 13.1667 19.2375 12.8333 19.4304 12.5L25.0714 2.35C25.3286 1.91667 25.65 1.65867 26.0357 1.576C26.4214 1.49333 26.8393 1.568 27.2893 1.8C29.5071 2.83333 31.4679 4.27467 33.1714 6.124C34.875 7.97333 36.1929 10.0653 37.125 12.4C37.2857 12.8333 37.2613 13.2087 37.0517 13.526C36.8421 13.8433 36.513 14.0013 36.0643 14H20.25ZM13.3554 16.45L7.56964 6.05C7.3125 5.61667 7.24821 5.18333 7.37678 4.75C7.50536 4.31667 7.7625 3.96667 8.14821 3.7C9.69107 2.56667 11.403 1.66667 13.284 1C15.165 0.333333 17.1656 0 19.2857 0C19.7679 0 20.2982 0.0253337 20.8768 0.0760004C21.4554 0.126667 21.9375 0.184667 22.3232 0.25C22.7732 0.316667 23.0709 0.516667 23.2161 0.85C23.3614 1.18333 23.3209 1.55 23.0946 1.95L15.0429 16.45C14.85 16.7833 14.5691 16.95 14.2001 16.95C13.8311 16.95 13.5495 16.7833 13.3554 16.45ZM1.63929 24C1.28571 24 0.964286 23.8753 0.675 23.626C0.385714 23.3767 0.208929 23.068 0.144643 22.7C0.0803573 22.332 0.0405 21.932 0.0250714 21.5C0.00964284 21.068 0.00128571 20.568 0 20C0 17.9 0.329785 15.8087 0.989357 13.726C1.64893 11.6433 2.66914 9.668 4.05 7.8C4.40357 7.33333 4.81371 7.1 5.28043 7.1C5.74714 7.1 6.10843 7.35 6.36429 7.85L14.4643 22.5C14.6571 22.8333 14.6494 23.1667 14.4411 23.5C14.2329 23.8333 13.9513 24 13.5964 24H1.63929ZM11.2821 38.2C9.16071 37.1333 7.21607 35.6833 5.44821 33.85C3.68036 32.0167 2.34643 29.9333 1.44643 27.6C1.28571 27.1667 1.31786 26.792 1.54286 26.476C1.76786 26.16 2.10536 26.0013 2.55536 26H18.2732C18.6268 26 18.9 26.1667 19.0929 26.5C19.2857 26.8333 19.2857 27.1667 19.0929 27.5L13.5482 37.55C13.2911 37.9833 12.9696 38.2667 12.5839 38.4C12.1982 38.5333 11.7643 38.4667 11.2821 38.2ZM19.2857 40C18.8357 40 18.3291 39.9747 17.766 39.924C17.2029 39.8733 16.713 39.8153 16.2964 39.75C15.8464 39.6833 15.5411 39.4833 15.3804 39.15C15.2196 38.8167 15.2518 38.45 15.4768 38.05L23.4321 23.65C23.625 23.3167 23.9464 23.15 24.3964 23.15C24.8464 23.15 25.1679 23.3167 25.3607 23.65L31.05 33.9C31.275 34.2667 31.3476 34.6667 31.2679 35.1C31.1882 35.5333 30.9227 35.9333 30.4714 36.3C28.9929 37.4333 27.2655 38.3333 25.2894 39C23.3132 39.6667 21.312 40 19.2857 40ZM32.3518 32.25L24.1554 17.5C23.9625 17.1667 23.9709 16.8333 24.1804 16.5C24.39 16.1667 24.6709 16 25.0232 16H36.9321C37.2857 16 37.6071 16.1253 37.8964 16.376C38.1857 16.6267 38.3625 16.9347 38.4268 17.3C38.4911 17.6653 38.5309 18.0653 38.5464 18.5C38.5618 18.9347 38.5701 19.4347 38.5714 20C38.5714 22.1 38.2416 24.2087 37.5821 26.326C36.9225 28.4433 35.9023 30.418 34.5214 32.25C34.2643 32.6167 33.8946 32.8087 33.4125 32.826C32.9304 32.8433 32.5768 32.6513 32.3518 32.25Z" fill="#0F0F0F"/>
<path fill-rule="evenodd" clip-rule="evenodd" d="M24.1554 17.5L32.3518 32.25C32.5768 32.6513 32.9304 32.8433 33.4125 32.826C33.8946 32.8087 34.2643 32.6167 34.5214 32.25C35.9023 30.418 36.9225 28.4433 37.5821 26.326C38.2416 24.2087 38.5714 22.1 38.5714 20C38.5701 19.4347 38.5618 18.9347 38.5464 18.5C38.5309 18.0653 38.4911 17.6653 38.4268 17.3C38.3625 16.9347 38.1857 16.6267 37.8964 16.376C37.6071 16.1253 37.2857 16 36.9321 16H25.0232C24.6709 16 24.39 16.1667 24.1804 16.5C23.9709 16.8333 23.9625 17.1667 24.1554 17.5Z" fill="#FFA602"/>
</svg>
